<?xml version="1.0" encoding="UTF-8"?>
<svg id="Capa_1" xmlns="http://www.w3.org/2000/svg" version="1.1" viewBox="0 0 283.46 205.94">
  <!-- Generator: Adobe Illustrator 29.4.0, SVG Export Plug-In . SVG Version: 2.1.0 Build 152)  -->
  <defs>
    <style>
      .st0 {
        opacity: .61;
      }

      .st1 {
        fill: #d178c5;
      }

      .st2 {
        fill: #ffd4e2;
      }

      .st3 {
        fill: #fff;
      }

      .st4 {
        opacity: .46;
      }

      .st5 {
        opacity: .25;
      }

      .st6 {
        fill: #87868a;
      }

      .st7 {
        fill: silver;
      }

      .st8 {
        fill: none;
        stroke: #22065b;
        stroke-miterlimit: 10;
        stroke-width: 3px;
      }

      .st9 {
        fill: #00c2e5;
      }

      .st10 {
        fill: #dc49be;
      }

      .st11 {
        fill: #3c2694;
      }

      .st12 {
        fill: #fe4db5;
      }

      .st13 {
        fill: #e8b3d7;
      }

      .st14 {
        fill: #0888b5;
      }
    </style>
  </defs>
  <g>
    <g>
      <rect class="st6" x="61.92" y="174.52" width="217.38" height="21.66"/>
      <g>
        <rect class="st9" x="54.84" y="165.4" width="221.6" height="27.75"/>
        <rect class="st8" x="54.84" y="165.4" width="221.6" height="27.75"/>
      </g>
      <rect class="st14" x="58.49" y="168.46" width="215.5" height="22.8"/>
    </g>
    <g>
      <g>
        <g>
          <rect class="st11" x="63.08" y="169.92" width="11.68" height="18.33"/>
          <rect class="st11" x="60.48" y="173.53" width="11.68" height="16.27"/>
          <g>
            <rect class="st10" x="61.92" y="171.99" width="11.68" height="16.27"/>
            <path class="st7" d="M69.68,172.49h-7.61c-.66,0-.66,1.02,0,1.02h7.61c.66,0,.66-1.02,0-1.02h0Z"/>
            <path class="st7" d="M61.53,173v14.5c0,.66,1.02.66,1.02,0v-14.5c0-.66-1.02-.66-1.02,0h0Z"/>
          </g>
        </g>
        <g>
          <rect class="st11" x="84.62" y="169.92" width="11.68" height="18.33"/>
          <rect class="st11" x="82.02" y="173.53" width="11.68" height="16.27"/>
          <g>
            <rect class="st10" x="83.46" y="171.99" width="11.68" height="16.27"/>
            <path class="st7" d="M91.23,172.49h-7.61c-.66,0-.66,1.02,0,1.02h7.61c.66,0,.66-1.02,0-1.02h0Z"/>
            <path class="st7" d="M83.07,173v14.5c0,.66,1.02.66,1.02,0v-14.5c0-.66-1.02-.66-1.02,0h0Z"/>
          </g>
        </g>
        <g>
          <rect class="st11" x="106.32" y="169.92" width="11.68" height="18.33"/>
          <rect class="st11" x="103.72" y="173.53" width="11.68" height="16.27"/>
          <g>
            <rect class="st10" x="105.16" y="171.99" width="11.68" height="16.27"/>
            <path class="st7" d="M112.93,172.49h-7.61c-.66,0-.66,1.02,0,1.02h7.61c.66,0,.66-1.02,0-1.02h0Z"/>
            <path class="st7" d="M104.77,173v14.5c0,.66,1.02.66,1.02,0v-14.5c0-.66-1.02-.66-1.02,0h0Z"/>
          </g>
        </g>
        <g>
          <rect class="st11" x="127.59" y="169.92" width="11.68" height="18.33"/>
          <rect class="st11" x="124.99" y="173.53" width="11.68" height="16.27"/>
          <g>
            <rect class="st10" x="126.43" y="171.99" width="11.68" height="16.27"/>
            <path class="st7" d="M134.2,172.49h-7.61c-.66,0-.66,1.02,0,1.02h7.61c.66,0,.66-1.02,0-1.02h0Z"/>
            <path class="st7" d="M126.04,173v14.5c0,.66,1.02.66,1.02,0v-14.5c0-.66-1.02-.66-1.02,0h0Z"/>
          </g>
        </g>
        <g>
          <rect class="st11" x="149.71" y="169.92" width="11.68" height="18.33"/>
          <rect class="st11" x="147.11" y="173.53" width="11.68" height="16.27"/>
          <g>
            <rect class="st10" x="148.55" y="171.99" width="11.68" height="16.27"/>
            <path class="st7" d="M156.32,172.49h-7.61c-.66,0-.66,1.02,0,1.02h7.61c.66,0,.66-1.02,0-1.02h0Z"/>
            <path class="st7" d="M148.16,173v14.5c0,.66,1.02.66,1.02,0v-14.5c0-.66-1.02-.66-1.02,0h0Z"/>
          </g>
        </g>
        <g>
          <rect class="st11" x="171.2" y="169.92" width="11.68" height="18.33"/>
          <rect class="st11" x="168.6" y="173.53" width="11.68" height="16.27"/>
          <g>
            <rect class="st10" x="170.04" y="171.99" width="11.68" height="16.27"/>
            <path class="st7" d="M177.81,172.49h-7.61c-.66,0-.66,1.02,0,1.02h7.61c.66,0,.66-1.02,0-1.02h0Z"/>
            <path class="st7" d="M169.65,173v14.5c0,.66,1.02.66,1.02,0v-14.5c0-.66-1.02-.66-1.02,0h0Z"/>
          </g>
        </g>
      </g>
      <g>
        <g>
          <rect class="st11" x="192.78" y="169.92" width="11.68" height="18.33"/>
          <rect class="st11" x="190.17" y="173.53" width="11.68" height="16.27"/>
          <g>
            <rect class="st10" x="191.61" y="171.99" width="11.68" height="16.27"/>
            <path class="st7" d="M199.38,172.49h-7.61c-.66,0-.66,1.02,0,1.02h7.61c.66,0,.66-1.02,0-1.02h0Z"/>
            <path class="st7" d="M191.23,173v14.5c0,.66,1.02.66,1.02,0v-14.5c0-.66-1.02-.66-1.02,0h0Z"/>
          </g>
        </g>
        <g>
          <rect class="st11" x="214.32" y="169.92" width="11.68" height="18.33"/>
          <rect class="st11" x="211.72" y="173.53" width="11.68" height="16.27"/>
          <g>
            <rect class="st10" x="213.16" y="171.99" width="11.68" height="16.27"/>
            <path class="st7" d="M220.93,172.49h-7.61c-.66,0-.66,1.02,0,1.02h7.61c.66,0,.66-1.02,0-1.02h0Z"/>
            <path class="st7" d="M212.77,173v14.5c0,.66,1.02.66,1.02,0,0-3.76,0-7.52,0-11.28v-3.22c0-.66-1.02-.66-1.02,0h0Z"/>
          </g>
        </g>
      </g>
    </g>
  </g>
  <g>
    <g>
      <rect class="st6" x="61.72" y="121.72" width="217.38" height="21.66"/>
      <g>
        <rect class="st9" x="54.64" y="112.6" width="221.6" height="27.75"/>
        <rect class="st8" x="54.64" y="112.6" width="221.6" height="27.75"/>
      </g>
      <rect class="st14" x="58.28" y="115.66" width="215.5" height="22.8"/>
    </g>
    <g>
      <g>
        <rect class="st11" x="62.87" y="117.12" width="11.68" height="18.33"/>
        <rect class="st11" x="60.27" y="120.73" width="11.68" height="16.27"/>
        <g>
          <rect class="st10" x="61.71" y="119.19" width="11.68" height="16.27"/>
          <path class="st7" d="M69.48,119.69h-7.61c-.66,0-.66,1.02,0,1.02h7.61c.66,0,.66-1.02,0-1.02h0Z"/>
          <path class="st7" d="M61.32,120.2c0,3.76,0,7.52,0,11.28v3.22c0,.66,1.02.66,1.02,0v-14.5c0-.66-1.02-.66-1.02,0h0Z"/>
        </g>
      </g>
      <g>
        <rect class="st11" x="84.42" y="117.12" width="11.68" height="18.33"/>
        <rect class="st11" x="81.81" y="120.73" width="11.68" height="16.27"/>
        <g>
          <rect class="st10" x="83.25" y="119.19" width="11.68" height="16.27"/>
          <path class="st7" d="M91.02,119.69h-7.61c-.66,0-.66,1.02,0,1.02h7.61c.66,0,.66-1.02,0-1.02h0Z"/>
          <path class="st7" d="M82.87,120.2v14.5c0,.66,1.02.66,1.02,0v-14.5c0-.66-1.02-.66-1.02,0h0Z"/>
        </g>
      </g>
      <g>
        <rect class="st11" x="106.12" y="117.12" width="11.68" height="18.33"/>
        <rect class="st11" x="103.51" y="120.73" width="11.68" height="16.27"/>
        <g>
          <rect class="st10" x="104.95" y="119.19" width="11.68" height="16.27"/>
          <path class="st7" d="M112.72,119.69h-7.61c-.66,0-.66,1.02,0,1.02h7.61c.66,0,.66-1.02,0-1.02h0Z"/>
          <path class="st7" d="M104.57,120.2v14.5c0,.66,1.02.66,1.02,0v-14.5c0-.66-1.02-.66-1.02,0h0Z"/>
        </g>
      </g>
      <g>
        <rect class="st11" x="127.39" y="117.12" width="11.68" height="18.33"/>
        <rect class="st11" x="124.78" y="120.73" width="11.68" height="16.27"/>
        <g>
          <rect class="st10" x="126.22" y="119.19" width="11.68" height="16.27"/>
          <path class="st7" d="M133.99,119.69h-7.61c-.66,0-.66,1.02,0,1.02h7.61c.66,0,.66-1.02,0-1.02h0Z"/>
          <path class="st7" d="M125.84,120.2v14.5c0,.66,1.02.66,1.02,0v-14.5c0-.66-1.02-.66-1.02,0h0Z"/>
        </g>
      </g>
    </g>
  </g>
  <g>
    <g>
      <rect class="st6" x="61.92" y="23.95" width="217.38" height="21.66"/>
      <g>
        <rect class="st9" x="54.84" y="14.83" width="221.6" height="27.75"/>
        <rect class="st8" x="54.84" y="14.83" width="221.6" height="27.75"/>
      </g>
      <rect class="st14" x="58.49" y="17.88" width="215.5" height="22.8"/>
    </g>
    <g>
      <g>
        <rect class="st11" x="63.08" y="19.34" width="11.68" height="18.33"/>
        <rect class="st11" x="60.48" y="22.95" width="11.68" height="16.27"/>
        <g>
          <rect class="st10" x="61.92" y="21.41" width="11.68" height="16.27"/>
          <path class="st7" d="M69.68,21.92h-7.61c-.66,0-.66,1.02,0,1.02h7.61c.66,0,.66-1.02,0-1.02h0Z"/>
          <path class="st7" d="M61.53,22.43v14.5c0,.66,1.02.66,1.02,0v-14.5c0-.66-1.02-.66-1.02,0h0Z"/>
        </g>
      </g>
      <g>
        <rect class="st11" x="84.62" y="19.34" width="11.68" height="18.33"/>
        <rect class="st11" x="82.02" y="22.95" width="11.68" height="16.27"/>
        <g>
          <rect class="st10" x="83.46" y="21.41" width="11.68" height="16.27"/>
          <path class="st7" d="M91.23,21.92h-7.61c-.66,0-.66,1.02,0,1.02h7.61c.66,0,.66-1.02,0-1.02h0Z"/>
          <path class="st7" d="M83.07,22.43v14.5c0,.66,1.02.66,1.02,0v-14.5c0-.66-1.02-.66-1.02,0h0Z"/>
        </g>
      </g>
      <g>
        <rect class="st11" x="106.32" y="19.34" width="11.68" height="18.33"/>
        <rect class="st11" x="103.72" y="22.95" width="11.68" height="16.27"/>
        <g>
          <rect class="st10" x="105.16" y="21.41" width="11.68" height="16.27"/>
          <path class="st7" d="M112.93,21.92h-7.61c-.66,0-.66,1.02,0,1.02h7.61c.66,0,.66-1.02,0-1.02h0Z"/>
          <path class="st7" d="M104.77,22.43v14.5c0,.66,1.02.66,1.02,0v-14.5c0-.66-1.02-.66-1.02,0h0Z"/>
        </g>
      </g>
      <g>
        <rect class="st11" x="127.59" y="19.34" width="11.68" height="18.33"/>
        <rect class="st11" x="124.99" y="22.95" width="11.68" height="16.27"/>
        <g>
          <rect class="st10" x="126.43" y="21.41" width="11.68" height="16.27"/>
          <path class="st7" d="M134.2,21.92h-7.61c-.66,0-.66,1.02,0,1.02h7.61c.66,0,.66-1.02,0-1.02h0Z"/>
          <path class="st7" d="M126.04,22.43v14.5c0,.66,1.02.66,1.02,0v-14.5c0-.66-1.02-.66-1.02,0h0Z"/>
        </g>
      </g>
      <g>
        <rect class="st11" x="149.71" y="19.34" width="11.68" height="18.33"/>
        <rect class="st11" x="147.11" y="22.95" width="11.68" height="16.27"/>
        <g>
          <rect class="st10" x="148.55" y="21.41" width="11.68" height="16.27"/>
          <path class="st7" d="M156.32,21.92h-7.61c-.66,0-.66,1.02,0,1.02h7.61c.66,0,.66-1.02,0-1.02h0Z"/>
          <path class="st7" d="M148.16,22.43v14.5c0,.66,1.02.66,1.02,0v-14.5c0-.66-1.02-.66-1.02,0h0Z"/>
        </g>
      </g>
    </g>
  </g>
  <g>
    <g>
      <g>
        <polygon class="st12" points="42.1 159.72 42.1 195.59 39.74 195.59 39.74 197.84 6.65 197.84 6.65 195.59 4.27 195.59 4.27 159.72 6.86 159.72 6.86 157.16 39.74 157.16 39.74 159.72 42.1 159.72"/>
        <rect class="st2" x="6.68" y="159.72" width="33.03" height="36"/>
      </g>
      <g class="st4">
        <rect class="st12" x="7.55" y="193.57" width="31.27" height="2.15"/>
      </g>
      <g class="st5">
        <rect class="st3" x="6.72" y="161.87" width="2.15" height="31.91"/>
      </g>
      <g class="st0">
        <rect class="st3" x="37.49" y="161.87" width="2.15" height="31.91"/>
      </g>
      <g class="st0">
        <rect class="st3" x="8.45" y="159.72" width="31.27" height="2.15"/>
      </g>
      <rect class="st1" x="37.42" y="193.43" width="2.29" height="2.29"/>
      <rect class="st13" x="37.42" y="159.72" width="2.29" height="2.29"/>
      <rect class="st13" x="6.65" y="159.65" width="2.29" height="2.29"/>
      <rect class="st1" x="6.65" y="193.43" width="2.29" height="2.29"/>
    </g>
    <g>
      <path class="st12" d="M34.42,177.46l-7.61-11.31-2.26,1.52-1.52-2.26-11.32,7.61,1.52,2.26-2.26,1.52,4.68,6.96,6.85-4.51.05.08,3.45-2.28-1.72-2.61-8.04,5.31-1.48-2.21,11.32-7.61,4.57,6.79-6.79,4.57,1.6,2.43-2.25,1.48.57.85.86,1.28,1.77,2.6,3.88-2.64-1.76-2.58,2.21-1.49-1.53-2.31,5.22-3.46h0Z"/>
      <polygon class="st12" points="24.62 187.33 23.75 186.06 23.76 186.05 24.62 187.33"/>
    </g>
  </g>
  <g>
    <g>
      <g>
        <polygon class="st12" points="42.05 107.92 42.05 143.79 39.7 143.79 39.7 146.04 6.6 146.04 6.6 143.79 4.22 143.79 4.22 107.92 6.82 107.92 6.82 105.36 39.7 105.36 39.7 107.92 42.05 107.92"/>
        <rect class="st2" x="6.63" y="107.92" width="33.03" height="36"/>
      </g>
      <g class="st4">
        <rect class="st12" x="7.51" y="141.77" width="31.27" height="2.15"/>
      </g>
      <g class="st5">
        <rect class="st3" x="6.67" y="110.07" width="2.15" height="31.91"/>
      </g>
      <g class="st0">
        <rect class="st3" x="37.45" y="110.07" width="2.15" height="31.91"/>
      </g>
      <g class="st0">
        <rect class="st3" x="8.4" y="107.92" width="31.27" height="2.15"/>
      </g>
      <rect class="st1" x="37.38" y="141.63" width="2.29" height="2.29"/>
      <rect class="st13" x="37.38" y="107.92" width="2.29" height="2.29"/>
      <rect class="st13" x="6.6" y="107.85" width="2.29" height="2.29"/>
      <rect class="st1" x="6.6" y="141.63" width="2.29" height="2.29"/>
    </g>
    <g>
      <path class="st12" d="M11.01,133.98v-2.47h3.42v-12.33h-3.42v-2.47h10.27v2.47h-3.42v12.33h3.42v2.47h-10.27Z"/>
      <path class="st12" d="M24.71,133.98v-2.47h-1.71v-7.4h1.71v-2.47h6.85v-4.93h3.42v17.26h-10.27ZM26.43,131.51h5.14v-7.4h-5.14v7.4Z"/>
    </g>
  </g>
  <g>
    <g>
      <g>
        <polygon class="st12" points="41.99 59.43 41.99 95.3 39.63 95.3 39.63 97.55 6.53 97.55 6.53 95.3 4.16 95.3 4.16 59.43 6.75 59.43 6.75 56.87 39.63 56.87 39.63 59.43 41.99 59.43"/>
        <rect class="st2" x="6.57" y="59.43" width="33.03" height="36"/>
      </g>
      <g class="st4">
        <rect class="st12" x="7.44" y="93.28" width="31.27" height="2.15"/>
      </g>
      <g class="st5">
        <rect class="st3" x="6.6" y="61.58" width="2.15" height="31.91"/>
      </g>
      <g class="st0">
        <rect class="st3" x="37.38" y="61.58" width="2.15" height="31.91"/>
      </g>
      <g class="st0">
        <rect class="st3" x="8.33" y="59.43" width="31.27" height="2.15"/>
      </g>
      <rect class="st1" x="37.31" y="93.14" width="2.29" height="2.29"/>
      <rect class="st13" x="37.31" y="59.43" width="2.29" height="2.29"/>
      <rect class="st13" x="6.53" y="59.36" width="2.29" height="2.29"/>
      <rect class="st1" x="6.53" y="93.14" width="2.29" height="2.29"/>
    </g>
    <g>
      <path class="st12" d="M10.58,86.28v-13.8h1.71v-2.76h1.71v-2.76h5.14v2.76h1.71v2.76h1.71v13.8h-3.42v-5.52h-5.14v5.52h-3.42ZM14.01,78h5.14v-5.52h-1.71v-2.76h-1.71v2.76h-1.71v5.52Z"/>
      <path class="st12" d="M26,86.28v-2.76h3.42v-8.28h-1.71v-2.76h5.14v11.04h3.42v2.76h-10.27Z"/>
    </g>
  </g>
  <g>
    <g>
      <g>
        <polygon class="st12" points="42.06 10.16 42.06 46.03 39.71 46.03 39.71 48.28 6.61 48.28 6.61 46.03 4.23 46.03 4.23 10.16 6.82 10.16 6.82 7.6 39.71 7.6 39.71 10.16 42.06 10.16"/>
        <rect class="st2" x="6.64" y="10.16" width="33.03" height="36"/>
      </g>
      <g class="st4">
        <rect class="st12" x="7.52" y="44.01" width="31.27" height="2.15"/>
      </g>
      <g class="st5">
        <rect class="st3" x="6.68" y="12.31" width="2.15" height="31.91"/>
      </g>
      <g class="st0">
        <rect class="st3" x="37.45" y="12.31" width="2.15" height="31.91"/>
      </g>
      <g class="st0">
        <rect class="st3" x="8.41" y="10.16" width="31.27" height="2.15"/>
      </g>
      <rect class="st1" x="37.38" y="43.87" width="2.29" height="2.29"/>
      <rect class="st13" x="37.38" y="10.16" width="2.29" height="2.29"/>
      <rect class="st13" x="6.61" y="10.09" width="2.29" height="2.29"/>
      <rect class="st1" x="6.61" y="43.87" width="2.29" height="2.29"/>
    </g>
    <g>
      <path class="st12" d="M10.58,36v-17.31h10.27v2.47h1.71v7.42h-1.71v2.47h-6.85v4.95h-3.42ZM14.01,28.58h5.14v-7.42h-5.14v7.42Z"/>
      <path class="st12" d="M24.28,36v-2.47h8.56v-2.47h-6.85v-2.47h-1.71v-2.47h1.71v-2.47h8.56v2.47h-6.85v2.47h6.85v2.47h1.71v2.47h-1.71v2.47h-10.27Z"/>
    </g>
  </g>
  <g>
    <g>
      <rect class="st6" x="61.93" y="73.11" width="217.38" height="21.66"/>
      <g>
        <rect class="st9" x="54.84" y="63.99" width="221.6" height="27.75"/>
        <rect class="st8" x="54.84" y="63.99" width="221.6" height="27.75"/>
      </g>
      <rect class="st14" x="58.49" y="67.05" width="215.5" height="22.8"/>
    </g>
    <g>
      <g>
        <g>
          <rect class="st11" x="63.08" y="68.51" width="11.68" height="18.33"/>
          <rect class="st11" x="60.48" y="72.12" width="11.68" height="16.27"/>
          <g>
            <rect class="st10" x="61.92" y="70.58" width="11.68" height="16.27"/>
            <path class="st7" d="M69.69,71.08h-7.61c-.66,0-.66,1.02,0,1.02h7.61c.66,0,.66-1.02,0-1.02h0Z"/>
            <path class="st7" d="M61.53,71.59c0,3.76,0,7.52,0,11.28v3.22c0,.66,1.02.66,1.02,0v-14.5c0-.66-1.02-.66-1.02,0h0Z"/>
          </g>
        </g>
        <g>
          <rect class="st11" x="84.63" y="68.51" width="11.68" height="18.33"/>
          <rect class="st11" x="82.02" y="72.12" width="11.68" height="16.27"/>
          <g>
            <rect class="st10" x="83.46" y="70.58" width="11.68" height="16.27"/>
            <path class="st7" d="M91.23,71.08h-7.61c-.66,0-.66,1.02,0,1.02h7.61c.66,0,.66-1.02,0-1.02h0Z"/>
            <path class="st7" d="M83.07,71.59v14.5c0,.66,1.02.66,1.02,0v-14.5c0-.66-1.02-.66-1.02,0h0Z"/>
          </g>
        </g>
        <g>
          <rect class="st11" x="106.32" y="68.51" width="11.68" height="18.33"/>
          <rect class="st11" x="103.72" y="72.12" width="11.68" height="16.27"/>
          <g>
            <rect class="st10" x="105.16" y="70.58" width="11.68" height="16.27"/>
            <path class="st7" d="M112.93,71.08h-7.61c-.66,0-.66,1.02,0,1.02h7.61c.66,0,.66-1.02,0-1.02h0Z"/>
            <path class="st7" d="M104.77,71.59v14.5c0,.66,1.02.66,1.02,0v-14.5c0-.66-1.02-.66-1.02,0h0Z"/>
          </g>
        </g>
        <g>
          <rect class="st11" x="127.6" y="68.51" width="11.68" height="18.33"/>
          <rect class="st11" x="124.99" y="72.12" width="11.68" height="16.27"/>
          <g>
            <rect class="st10" x="126.43" y="70.58" width="11.68" height="16.27"/>
            <path class="st7" d="M134.2,71.08h-7.61c-.66,0-.66,1.02,0,1.02h7.61c.66,0,.66-1.02,0-1.02h0Z"/>
            <path class="st7" d="M126.04,71.59v14.5c0,.66,1.02.66,1.02,0v-14.5c0-.66-1.02-.66-1.02,0h0Z"/>
          </g>
        </g>
        <g>
          <rect class="st11" x="149.72" y="68.51" width="11.68" height="18.33"/>
          <rect class="st11" x="147.11" y="72.12" width="11.68" height="16.27"/>
          <g>
            <rect class="st10" x="148.55" y="70.58" width="11.68" height="16.27"/>
            <path class="st7" d="M156.32,71.08h-7.61c-.66,0-.66,1.02,0,1.02h7.61c.66,0,.66-1.02,0-1.02h0Z"/>
            <path class="st7" d="M148.16,71.59v14.5c0,.66,1.02.66,1.02,0v-14.5c0-.66-1.02-.66-1.02,0h0Z"/>
          </g>
        </g>
        <g>
          <rect class="st11" x="171.21" y="68.51" width="11.68" height="18.33"/>
          <rect class="st11" x="168.6" y="72.12" width="11.68" height="16.27"/>
          <g>
            <rect class="st10" x="170.04" y="70.58" width="11.68" height="16.27"/>
            <path class="st7" d="M177.81,71.08h-7.61c-.66,0-.66,1.02,0,1.02h7.61c.66,0,.66-1.02,0-1.02h0Z"/>
            <path class="st7" d="M169.65,71.59c0,3.76,0,7.52,0,11.28v3.22c0,.66,1.02.66,1.02,0v-14.5c0-.66-1.02-.66-1.02,0h0Z"/>
          </g>
        </g>
      </g>
      <g>
        <rect class="st11" x="192.78" y="68.51" width="11.68" height="18.33"/>
        <rect class="st11" x="190.18" y="72.12" width="11.68" height="16.27"/>
        <g>
          <rect class="st10" x="191.62" y="70.58" width="11.68" height="16.27"/>
          <path class="st7" d="M199.39,71.08h-7.61c-.66,0-.66,1.02,0,1.02h7.61c.66,0,.66-1.02,0-1.02h0Z"/>
          <path class="st7" d="M191.23,71.59v14.5c0,.66,1.02.66,1.02,0v-14.5c0-.66-1.02-.66-1.02,0h0Z"/>
        </g>
      </g>
    </g>
  </g>
</svg>